<svg width="60" height="27" viewBox="0 0 60 27" fill="none" xmlns="http://www.w3.org/2000/svg">
<path d="M6.66667 0H13.3333C15.1014 0 16.7971 0.702379 18.0474 1.95262C19.2976 3.20286 20 4.89855 20 6.66666V26.6667H13.3333V20H6.66667V26.6667H0V6.66666C0 4.89855 0.702379 3.20286 1.95262 1.95262C3.20286 0.702379 4.89856 0 6.66667 0ZM6.66667 6.66666V13.3333H13.3333V6.66666H6.66667ZM33.1 0H40L30.2333 26.6667H23.3333L33.1 0ZM50 0H60V6.66666H50V20H60V26.6667H50C48.2319 26.6667 46.5362 25.9643 45.286 24.714C44.0357 23.4638 43.3333 21.7681 43.3333 20V6.66666C43.3333 4.89855 44.0357 3.20286 45.286 1.95262C46.5362 0.702379 48.2319 0 50 0Z" fill="white"/>
</svg>
